<?xml version="1.0" encoding="UTF-8"?>
<svg xmlns="http://www.w3.org/2000/svg" width="980" height="500" viewBox="0 0 980 500">
<rect width="100%" height="100%" fill="#fbfbfb"/>
<text x="250" y="42" font-family="Georgia, serif" font-size="28" fill="#1d1d1d">Graphical Perception Results</text>
<text x="250" y="68" font-family="Georgia, serif" font-size="15" fill="#595959">Average log2 error with 95% bootstrap confidence intervals (20,000 resamples)</text>
<text x="250" y="90" font-family="Georgia, serif" font-size="14" fill="#595959">Lower values indicate better accuracy. Data: 10 participants, 600 trials.</text>
<rect x="250" y="110" width="520" height="270" fill="#ffffff" stroke="#d9d9d9" stroke-width="1"/>
<rect x="250" y="110.00" width="520" height="90.00" fill="#ffffff"/>
<rect x="250" y="200.00" width="520" height="90.00" fill="#f6f6f6"/>
<rect x="250" y="290.00" width="520" height="90.00" fill="#ffffff"/>
<line x1="250.00" y1="110" x2="250.00" y2="380" stroke="#e6e6e6" stroke-width="1"/>
<text x="250.00" y="410" text-anchor="middle" font-family="Georgia, serif" font-size="13" fill="#666">1.54</text>
<line x1="336.67" y1="110" x2="336.67" y2="380" stroke="#e6e6e6" stroke-width="1"/>
<text x="336.67" y="410" text-anchor="middle" font-family="Georgia, serif" font-size="13" fill="#666">1.88</text>
<line x1="423.33" y1="110" x2="423.33" y2="380" stroke="#e6e6e6" stroke-width="1"/>
<text x="423.33" y="410" text-anchor="middle" font-family="Georgia, serif" font-size="13" fill="#666">2.21</text>
<line x1="510.00" y1="110" x2="510.00" y2="380" stroke="#e6e6e6" stroke-width="1"/>
<text x="510.00" y="410" text-anchor="middle" font-family="Georgia, serif" font-size="13" fill="#666">2.54</text>
<line x1="596.67" y1="110" x2="596.67" y2="380" stroke="#e6e6e6" stroke-width="1"/>
<text x="596.67" y="410" text-anchor="middle" font-family="Georgia, serif" font-size="13" fill="#666">2.87</text>
<line x1="683.33" y1="110" x2="683.33" y2="380" stroke="#e6e6e6" stroke-width="1"/>
<text x="683.33" y="410" text-anchor="middle" font-family="Georgia, serif" font-size="13" fill="#666">3.20</text>
<line x1="770.00" y1="110" x2="770.00" y2="380" stroke="#e6e6e6" stroke-width="1"/>
<text x="770.00" y="410" text-anchor="middle" font-family="Georgia, serif" font-size="13" fill="#666">3.53</text>
<line x1="250" y1="380" x2="770" y2="380" stroke="#7d7d7d" stroke-width="1.4"/>
<text x="510.00" y="460" text-anchor="middle" font-family="Georgia, serif" font-size="15" fill="#444">Mean log2 error</text>
<text x="130" y="160.00" text-anchor="end" font-family="Georgia, serif" font-size="16" fill="#555">#1</text>
<text x="236" y="160.00" text-anchor="end" font-family="Georgia, serif" font-size="19" fill="#1f1f1f">Bar</text>
<line x1="318.82" y1="155.00" x2="454.89" y2="155.00" stroke="#333" stroke-width="3" stroke-linecap="round"/>
<line x1="318.82" y1="147.00" x2="318.82" y2="163.00" stroke="#333" stroke-width="2"/>
<line x1="454.89" y1="147.00" x2="454.89" y2="163.00" stroke="#333" stroke-width="2"/>
<circle cx="386.34" cy="155.00" r="8" fill="#1f1f1f" stroke="#121212" stroke-width="1"/>
<text x="788" y="152.00" font-family="Georgia, serif" font-size="13" fill="#444">mean 2.0658</text>
<text x="788" y="171.00" font-family="Georgia, serif" font-size="12" fill="#666">95% CI [1.8074, 2.3282]</text>
<text x="130" y="250.00" text-anchor="end" font-family="Georgia, serif" font-size="16" fill="#555">#2</text>
<text x="236" y="250.00" text-anchor="end" font-family="Georgia, serif" font-size="19" fill="#1f1f1f">Pie</text>
<line x1="487.14" y1="245.00" x2="596.93" y2="245.00" stroke="#333" stroke-width="3" stroke-linecap="round"/>
<line x1="487.14" y1="237.00" x2="487.14" y2="253.00" stroke="#333" stroke-width="2"/>
<line x1="596.93" y1="237.00" x2="596.93" y2="253.00" stroke="#333" stroke-width="2"/>
<circle cx="542.24" cy="245.00" r="8" fill="#5f5f5f" stroke="#121212" stroke-width="1"/>
<text x="788" y="242.00" font-family="Georgia, serif" font-size="13" fill="#444">mean 2.6625</text>
<text x="788" y="261.00" font-family="Georgia, serif" font-size="12" fill="#666">95% CI [2.4516, 2.8719]</text>
<text x="130" y="340.00" text-anchor="end" font-family="Georgia, serif" font-size="16" fill="#555">#3</text>
<text x="236" y="340.00" text-anchor="end" font-family="Georgia, serif" font-size="19" fill="#1f1f1f">Stacked Bar</text>
<line x1="596.79" y1="335.00" x2="701.18" y2="335.00" stroke="#333" stroke-width="3" stroke-linecap="round"/>
<line x1="596.79" y1="327.00" x2="596.79" y2="343.00" stroke="#333" stroke-width="2"/>
<line x1="701.18" y1="327.00" x2="701.18" y2="343.00" stroke="#333" stroke-width="2"/>
<circle cx="648.94" cy="335.00" r="8" fill="#a0a0a0" stroke="#121212" stroke-width="1"/>
<text x="788" y="332.00" font-family="Georgia, serif" font-size="13" fill="#444">mean 3.0709</text>
<text x="788" y="351.00" font-family="Georgia, serif" font-size="12" fill="#666">95% CI [2.8713, 3.2709]</text>
<text x="250" y="486" font-family="Georgia, serif" font-size="12" fill="#707070">Ordered best to worst by mean log2 error.</text>
</svg>
